<?xml version="1.0" encoding="UTF-8"?>
<svg width="24px" height="24px" viewBox="0 0 24 24" version="1.1" xmlns="http://www.w3.org/2000/svg" xmlns:xlink="http://www.w3.org/1999/xlink">
    <!-- Generator: sketchtool 52.5 (67469) - http://www.bohemiancoding.com/sketch -->
    <title>15256568-8BE7-4D2F-BF25-9EB166C39DC0</title>
    <desc>Created with sketchtool.</desc>
    <g id="Symbols" stroke="none" stroke-width="1" fill="none" fill-rule="evenodd">
        <g id="Icon-Create-Off" transform="translate(-18.000000, -18.000000)" fill="#8777B3" fill-rule="nonzero">
            <path d="M41.8807717,29.1602827 C41.8571557,28.9630438 41.6964756,28.8105552 41.4982717,28.7972827 L31.5622717,28.1582827 L34.0357717,18.5162827 C34.084723,18.3237124 33.9904072,18.1234484 33.8107717,18.0385327 C33.6300217,17.9552827 33.4147717,18.0100327 33.2992717,18.1727827 L30.5482717,22.0322827 C29.3438053,23.7210451 28.5956701,25.6921335 28.3762717,27.7547827 L28.3567717,27.9512827 L25.3080217,27.7547827 C24.9847717,26.1632827 23.6265217,24.9145327 21.9285217,24.8057827 C19.8892717,24.6782827 18.1380217,26.2375327 18.0075217,28.2527827 C17.8785217,30.2815327 19.4242717,32.0417827 21.4545217,32.1737827 C21.5340217,32.1797827 21.6135217,32.1827827 21.6937717,32.1827827 C23.1615217,32.1827827 24.4440217,31.3142827 25.0350217,30.0520327 L28.0665217,30.6977827 L27.7402717,33.7772827 C26.2470217,33.9572827 24.9930217,35.0372827 24.6127717,36.5252827 C24.3675217,37.4785327 24.5092717,38.4737827 25.0117717,39.3220327 C25.5142717,40.1695327 26.3167717,40.7740327 27.2707717,41.0170327 C27.5722717,41.0950327 27.8820217,41.1340327 28.1902717,41.1340327 C29.8755217,41.1340327 31.3440217,39.9932827 31.7655217,38.3582827 C32.1870217,36.7105327 31.4227717,35.0312827 30.0060217,34.2302827 L30.7665217,31.2730327 L30.9600217,31.3127827 C32.9902717,31.7447827 35.0940217,31.6450327 37.0740217,31.0240327 L41.5950217,29.6035327 C41.7832717,29.5420327 41.9047717,29.3560327 41.8807717,29.1602827 Z M23.7217717,28.6202827 C23.6512717,29.7325327 22.6987717,30.6032827 21.5602717,30.5192827 C20.4420217,30.4472827 19.5892717,29.4782827 19.6605217,28.3592827 C19.7310217,27.2920327 20.6220217,26.4550327 21.6915217,26.4550327 C21.7350217,26.4550327 21.7777717,26.4565327 21.8212717,26.4595327 C22.9425217,26.5307827 23.7945217,27.5005327 23.7217717,28.6202827 Z M30.1597717,37.9465327 C29.8875217,39.0130327 28.7662717,39.6910327 27.6840217,39.4112827 C27.1575217,39.2762827 26.7150217,38.9455327 26.4382717,38.4767827 C26.1622717,38.0095327 26.0827717,37.4612827 26.2177717,36.9355327 C26.4487717,36.0347827 27.2587717,35.4047827 28.1865217,35.4047827 C28.3575217,35.4047827 28.5277717,35.4257827 28.6942717,35.4692827 C29.7810217,35.7497827 30.4380217,36.8590327 30.1597717,37.9465327 Z M29.9317717,30.2642827 C29.4435217,30.2642827 29.0467717,29.8682827 29.0467717,29.3755327 C29.0467717,28.8865327 29.4435217,28.4882827 29.9317717,28.4882827 C30.4222717,28.4882827 30.8205217,28.8857827 30.8205217,29.3755327 C30.8205217,29.8682827 30.4222717,30.2642827 29.9317717,30.2642827 Z" id="mm_create_off"></path>
        </g>
    </g>
</svg>