<?xml version="1.0" encoding="UTF-8"?>
<svg width="24px" height="24px" viewBox="0 0 24 24" version="1.1" xmlns="http://www.w3.org/2000/svg" xmlns:xlink="http://www.w3.org/1999/xlink">
    <!-- Generator: sketchtool 52.5 (67469) - http://www.bohemiancoding.com/sketch -->
    <title>96CB6A60-48EE-4A6E-8CEE-B4FB822FB44C</title>
    <desc>Created with sketchtool.</desc>
    <g id="Symbols" stroke="none" stroke-width="1" fill="none" fill-rule="evenodd">
        <g id="Icon-Section-Off" transform="translate(-18.000000, -18.000000)" fill="#8777B3" fill-rule="nonzero">
            <path d="M38.8172701,22.3025455 C41.1079649,24.8495354 42.1537754,28.1273535 41.7616912,31.5318788 C41.4134807,34.5574949 39.963628,37.4922828 37.7840912,39.583596 C36.1365964,41.1642828 34.4703228,42 32.9659859,42 C32.9658175,42 32.9658175,42 32.9656491,42 C30.8509543,41.9998384 29.3740701,40.3737374 29.3740701,38.0455758 C29.3740701,35.876202 28.6073333,35.876202 27.7197543,35.876202 C27.3454385,35.876202 26.9230385,35.9111919 26.4759649,35.9485253 C26.1056912,35.9792323 25.7230385,36.0109091 25.326828,36.0265859 C25.2563438,36.0295758 25.1864491,36.0308687 25.115628,36.0308687 C22.454407,36.0308687 19.7801333,34.1050505 18.6123017,31.3477172 C17.1782807,27.9621818 18.2902807,24.2134949 21.6629964,21.0626263 C23.7771017,19.0875152 26.5674175,18 29.520007,18 C33.0200491,18 36.3218596,19.528 38.8172701,22.3025455 Z M32.5723014,36.8910977 C32.2132774,37.933779 32.5574236,39.0011485 33.3394866,39.2704344 C34.121504,39.5397046 35.0498332,38.9104834 35.4088571,37.8678022 C35.7679227,36.8249998 35.4237766,35.7576303 34.6417593,35.4883601 C33.8596962,35.2190742 32.931367,35.8482954 32.5723014,36.8910977 Z M34.9211859,26.500048 C34.9211859,27.327119 35.594084,28 36.4212101,28 C37.2482878,28 37.9211859,27.327119 37.9211859,26.500048 C37.9211859,25.672881 37.2482878,25 36.4212101,25 C35.594084,25 34.9211859,25.672881 34.9211859,26.500048 Z M33.9211859,22.500024 C33.9211859,21.6728703 33.2483253,21 32.4211859,21 C31.5940949,21 30.9211859,21.6728703 30.9211859,22.500024 C30.9211859,23.3269856 31.5940949,24 32.4211859,24 C33.2483253,24 33.9211859,23.3269856 33.9211859,22.500024 Z M26.4211859,21 C25.5940949,21 24.9211859,21.6729026 24.9211859,22.5 C24.9211859,23.3270974 25.5940949,24 26.4211859,24 C27.248277,24 27.9211859,23.3270974 27.9211859,22.5 C27.9211859,21.6729026 27.248277,21 26.4211859,21 Z M22.4212343,25 C21.5941432,25 20.9211859,25.672881 20.9211859,26.499952 C20.9211859,27.3270709 21.5941432,28 22.4212343,28 C23.2483253,28 23.9211859,27.3270709 23.9211859,26.499952 C23.9211859,25.672881 23.2483253,25 22.4212343,25 Z" id="mm_section_off"></path>
        </g>
    </g>
</svg>